<svg class="animated" id="freepik_stories-data-trends" xmlns="http://www.w3.org/2000/svg" viewBox="0 0 500 500" version="1.1" xmlns:xlink="http://www.w3.org/1999/xlink" xmlns:svgjs="http://svgjs.com/svgjs"><style>svg#freepik_stories-data-trends:not(.animated) .animable {opacity: 0;}svg#freepik_stories-data-trends.animated #el70v1rzxpg6v {animation: 5.1s 1 forwards cubic-bezier(.36,-0.01,.5,1.38) slideLeft;animation-delay: 0s;}svg#freepik_stories-data-trends.animated #el0ec6o40o263 {animation: 5.1s 1 forwards cubic-bezier(.36,-0.01,.5,1.38) slideLeft;animation-delay: 0.1108695652173913s;opacity: 0}svg#freepik_stories-data-trends.animated #elv7j3oldjzy {animation: 5.1s 1 forwards cubic-bezier(.36,-0.01,.5,1.38) slideLeft;animation-delay: 0.2217391304347826s;opacity: 0}svg#freepik_stories-data-trends.animated #elee1xsrdmvx {animation: 5.1s 1 forwards cubic-bezier(.36,-0.01,.5,1.38) slideLeft;animation-delay: 0.3326086956521739s;opacity: 0}svg#freepik_stories-data-trends.animated #elanh34frk7tl {animation: 5.1s 1 forwards cubic-bezier(.36,-0.01,.5,1.38) slideLeft;animation-delay: 0.4434782608695652s;opacity: 0}svg#freepik_stories-data-trends.animated #ely90jpgdshhq {animation: 5.1s 1 forwards cubic-bezier(.36,-0.01,.5,1.38) slideLeft;animation-delay: 0.5543478260869565s;opacity: 0}svg#freepik_stories-data-trends.animated #elwpk6c46pu4e {animation: 5.1s 1 forwards cubic-bezier(.36,-0.01,.5,1.38) slideLeft;animation-delay: 0.6652173913043478s;opacity: 0}svg#freepik_stories-data-trends.animated #el1q3gfwsxk0w {animation: 5.1s 1 forwards cubic-bezier(.36,-0.01,.5,1.38) slideLeft;animation-delay: 0.7760869565217391s;opacity: 0}svg#freepik_stories-data-trends.animated #eldnufk47sp47 {animation: 5.1s 1 forwards cubic-bezier(.36,-0.01,.5,1.38) slideLeft;animation-delay: 0.8869565217391304s;opacity: 0}svg#freepik_stories-data-trends.animated #elvmcjv7zygx {animation: 5.1s 1 forwards cubic-bezier(.36,-0.01,.5,1.38) slideLeft;animation-delay: 0.9978260869565218s;opacity: 0}svg#freepik_stories-data-trends.animated #elf7jjcei0918 {animation: 5.1s 1 forwards cubic-bezier(.36,-0.01,.5,1.38) slideLeft;animation-delay: 1.108695652173913s;opacity: 0}svg#freepik_stories-data-trends.animated #el9kv723fwmko {animation: 5.1s 1 forwards cubic-bezier(.36,-0.01,.5,1.38) slideLeft;animation-delay: 1.2195652173913043s;opacity: 0}svg#freepik_stories-data-trends.animated #el9qqsdm4huv {animation: 5.1s 1 forwards cubic-bezier(.36,-0.01,.5,1.38) slideLeft;animation-delay: 1.3304347826086955s;opacity: 0}svg#freepik_stories-data-trends.animated #elcs1q4x3t3hl {animation: 5.1s 1 forwards cubic-bezier(.36,-0.01,.5,1.38) slideLeft;animation-delay: 1.441304347826087s;opacity: 0}svg#freepik_stories-data-trends.animated #elpl8nqimyvp {animation: 5.1s 1 forwards cubic-bezier(.36,-0.01,.5,1.38) slideLeft;animation-delay: 1.5521739130434782s;opacity: 0}svg#freepik_stories-data-trends.animated #elm4gdhn5ynlm {animation: 5.1s 1 forwards cubic-bezier(.36,-0.01,.5,1.38) slideLeft;animation-delay: 1.6630434782608696s;opacity: 0}svg#freepik_stories-data-trends.animated #eleki1c8jeggd {animation: 5.1s 1 forwards cubic-bezier(.36,-0.01,.5,1.38) slideLeft;animation-delay: 1.7739130434782608s;opacity: 0}svg#freepik_stories-data-trends.animated #elu4w8uvjbeim {animation: 5.1s 1 forwards cubic-bezier(.36,-0.01,.5,1.38) slideLeft;animation-delay: 1.884782608695652s;opacity: 0}svg#freepik_stories-data-trends.animated #elw0uf0do55nd {animation: 5.1s 1 forwards cubic-bezier(.36,-0.01,.5,1.38) slideLeft;animation-delay: 1.9956521739130435s;opacity: 0}svg#freepik_stories-data-trends.animated #el344qqffp8va {animation: 5.1s 1 forwards cubic-bezier(.36,-0.01,.5,1.38) slideLeft;animation-delay: 2.106521739130435s;opacity: 0}svg#freepik_stories-data-trends.animated #elyh8g5chahwh {animation: 5.1s 1 forwards cubic-bezier(.36,-0.01,.5,1.38) slideLeft;animation-delay: 2.217391304347826s;opacity: 0}svg#freepik_stories-data-trends.animated #elx871boxsr6l {animation: 5.1s 1 forwards cubic-bezier(.36,-0.01,.5,1.38) slideLeft;animation-delay: 2.3282608695652174s;opacity: 0}svg#freepik_stories-data-trends.animated #eltm7fgop0etp {animation: 5.1s 1 forwards cubic-bezier(.36,-0.01,.5,1.38) slideLeft;animation-delay: 2.4391304347826086s;opacity: 0}svg#freepik_stories-data-trends.animated #elo6jb05bsjcr {animation: 5.1s 1 forwards cubic-bezier(.36,-0.01,.5,1.38) slideLeft;animation-delay: 2.55s;opacity: 0}svg#freepik_stories-data-trends.animated #el01e5j49p6zzf {animation: 5.1s 1 forwards cubic-bezier(.36,-0.01,.5,1.38) slideLeft;animation-delay: 2.660869565217391s;opacity: 0}svg#freepik_stories-data-trends.animated #el4v1jz0nova8 {animation: 5.1s 1 forwards cubic-bezier(.36,-0.01,.5,1.38) slideLeft;animation-delay: 2.7717391304347827s;opacity: 0}svg#freepik_stories-data-trends.animated #eluw7bj84gv6 {animation: 5.1s 1 forwards cubic-bezier(.36,-0.01,.5,1.38) slideLeft;animation-delay: 2.882608695652174s;opacity: 0}svg#freepik_stories-data-trends.animated #ellsdo87ru8v {animation: 5.1s 1 forwards cubic-bezier(.36,-0.01,.5,1.38) slideLeft;animation-delay: 2.993478260869565s;opacity: 0}svg#freepik_stories-data-trends.animated #el24it46p6471i {animation: 5.1s 1 forwards cubic-bezier(.36,-0.01,.5,1.38) slideLeft;animation-delay: 3.1043478260869564s;opacity: 0}svg#freepik_stories-data-trends.animated #elm31kcekiwpb {animation: 5.1s 1 forwards cubic-bezier(.36,-0.01,.5,1.38) slideLeft;animation-delay: 3.2152173913043476s;opacity: 0}svg#freepik_stories-data-trends.animated #elagfk7l2wkr8 {animation: 5.1s 1 forwards cubic-bezier(.36,-0.01,.5,1.38) slideLeft;animation-delay: 3.3260869565217392s;opacity: 0}svg#freepik_stories-data-trends.animated #elro4ywciw77r {animation: 5.1s 1 forwards cubic-bezier(.36,-0.01,.5,1.38) slideLeft;animation-delay: 3.4369565217391305s;opacity: 0}svg#freepik_stories-data-trends.animated #el0qd58x66ho8l {animation: 5.1s 1 forwards cubic-bezier(.36,-0.01,.5,1.38) slideLeft;animation-delay: 3.5478260869565217s;opacity: 0}svg#freepik_stories-data-trends.animated #elb5hr6og49st {animation: 5.1s 1 forwards cubic-bezier(.36,-0.01,.5,1.38) slideLeft;animation-delay: 3.658695652173913s;opacity: 0}svg#freepik_stories-data-trends.animated #elgz0wzqum6f6 {animation: 5.1s 1 forwards cubic-bezier(.36,-0.01,.5,1.38) slideLeft;animation-delay: 3.769565217391304s;opacity: 0}svg#freepik_stories-data-trends.animated #elr0ugfhm8sk {animation: 5.1s 1 forwards cubic-bezier(.36,-0.01,.5,1.38) slideLeft;animation-delay: 3.880434782608696s;opacity: 0}svg#freepik_stories-data-trends.animated #elxdtum524hs9 {animation: 5.1s 1 forwards cubic-bezier(.36,-0.01,.5,1.38) slideLeft;animation-delay: 3.991304347826087s;opacity: 0}svg#freepik_stories-data-trends.animated #elffbrdya8xxt {animation: 5.1s 1 forwards cubic-bezier(.36,-0.01,.5,1.38) slideLeft;animation-delay: 4.102173913043478s;opacity: 0}svg#freepik_stories-data-trends.animated #eljhnb0xnnhjg {animation: 5.1s 1 forwards cubic-bezier(.36,-0.01,.5,1.38) slideLeft;animation-delay: 4.21304347826087s;opacity: 0}svg#freepik_stories-data-trends.animated #elykaw1ozaryq {animation: 5.1s 1 forwards cubic-bezier(.36,-0.01,.5,1.38) slideLeft;animation-delay: 4.323913043478261s;opacity: 0}svg#freepik_stories-data-trends.animated #elv06vp1o2xr {animation: 5.1s 1 forwards cubic-bezier(.36,-0.01,.5,1.38) slideLeft;animation-delay: 4.434782608695652s;opacity: 0}svg#freepik_stories-data-trends.animated #elp38f7czsta {animation: 5.1s 1 forwards cubic-bezier(.36,-0.01,.5,1.38) slideLeft;animation-delay: 4.5456521739130435s;opacity: 0}svg#freepik_stories-data-trends.animated #el1f5pghm8lqr {animation: 5.1s 1 forwards cubic-bezier(.36,-0.01,.5,1.38) slideLeft;animation-delay: 4.656521739130435s;opacity: 0}svg#freepik_stories-data-trends.animated #elr8mpie9o0l {animation: 5.1s 1 forwards cubic-bezier(.36,-0.01,.5,1.38) slideLeft;animation-delay: 4.767391304347826s;opacity: 0}svg#freepik_stories-data-trends.animated #elxpwnmpphdb {animation: 5.1s 1 forwards cubic-bezier(.36,-0.01,.5,1.38) slideLeft;animation-delay: 4.878260869565217s;opacity: 0}svg#freepik_stories-data-trends.animated #elqy0a79ua1un {animation: 5.1s 1 forwards cubic-bezier(.36,-0.01,.5,1.38) slideLeft;animation-delay: 4.989130434782608s;opacity: 0}svg#freepik_stories-data-trends.animated #freepik--background-complete--inject-136 {animation: 5.1s 1 forwards cubic-bezier(.36,-0.01,.5,1.38) slideLeft;animation-delay: 0s;}svg#freepik_stories-data-trends.animated #freepik--Shadow--inject-136 {animation: 1s 1 forwards cubic-bezier(.36,-0.01,.5,1.38) fadeIn;animation-delay: 0s;}svg#freepik_stories-data-trends.animated #freepik--Character--inject-136 {animation: 1s 1 forwards cubic-bezier(.36,-0.01,.5,1.38) slideUp,1.5s Infinite  linear wind;animation-delay: 0s,1s;}svg#freepik_stories-data-trends.animated #el0glj1a5iqedu {animation: 4.9s 1 forwards ease-out lightSpeedLeft;animation-delay: 0s;}svg#freepik_stories-data-trends.animated #eloewn4ffa3gg {animation: 4.9s 1 forwards ease-out lightSpeedLeft;animation-delay: 0.18846153846153849s;opacity: 0}svg#freepik_stories-data-trends.animated #elpzq2e3lvkem {animation: 4.9s 1 forwards ease-out lightSpeedLeft;animation-delay: 0.37692307692307697s;opacity: 0}svg#freepik_stories-data-trends.animated #el21z4yd78dit {animation: 4.9s 1 forwards ease-out lightSpeedLeft;animation-delay: 0.5653846153846155s;opacity: 0}svg#freepik_stories-data-trends.animated #ellx3raiberu {animation: 4.9s 1 forwards ease-out lightSpeedLeft;animation-delay: 0.7538461538461539s;opacity: 0}svg#freepik_stories-data-trends.animated #elsqwim7tmx98 {animation: 4.9s 1 forwards ease-out lightSpeedLeft;animation-delay: 0.9423076923076924s;opacity: 0}svg#freepik_stories-data-trends.animated #el35q5adp8zc {animation: 4.9s 1 forwards ease-out lightSpeedLeft;animation-delay: 1.130769230769231s;opacity: 0}svg#freepik_stories-data-trends.animated #elxg8hibua1d {animation: 4.9s 1 forwards ease-out lightSpeedLeft;animation-delay: 1.3192307692307694s;opacity: 0}svg#freepik_stories-data-trends.animated #elnyooh4opezh {animation: 4.9s 1 forwards ease-out lightSpeedLeft;animation-delay: 1.5076923076923079s;opacity: 0}svg#freepik_stories-data-trends.animated #el4r0lnrdop9 {animation: 4.9s 1 forwards ease-out lightSpeedLeft;animation-delay: 1.6961538461538463s;opacity: 0}svg#freepik_stories-data-trends.animated #el6fklfb3uou9 {animation: 4.9s 1 forwards ease-out lightSpeedLeft;animation-delay: 1.8846153846153848s;opacity: 0}svg#freepik_stories-data-trends.animated #elfksp7knmhij {animation: 4.9s 1 forwards ease-out lightSpeedLeft;animation-delay: 2.0730769230769233s;opacity: 0}svg#freepik_stories-data-trends.animated #el537qovy1trt {animation: 4.9s 1 forwards ease-out lightSpeedLeft;animation-delay: 2.261538461538462s;opacity: 0}svg#freepik_stories-data-trends.animated #elrljx0ldt1li {animation: 4.9s 1 forwards ease-out lightSpeedLeft;animation-delay: 2.45s;opacity: 0}svg#freepik_stories-data-trends.animated #elgo1k7v13sz9 {animation: 4.9s 1 forwards ease-out lightSpeedLeft;animation-delay: 2.638461538461539s;opacity: 0}svg#freepik_stories-data-trends.animated #elhzw1ssqvet {animation: 4.9s 1 forwards ease-out lightSpeedLeft;animation-delay: 2.826923076923077s;opacity: 0}svg#freepik_stories-data-trends.animated #elxjq7juu988b {animation: 4.9s 1 forwards ease-out lightSpeedLeft;animation-delay: 3.0153846153846158s;opacity: 0}svg#freepik_stories-data-trends.animated #el986jx8foelk {animation: 4.9s 1 forwards ease-out lightSpeedLeft;animation-delay: 3.2038461538461545s;opacity: 0}svg#freepik_stories-data-trends.animated #elwnh7vvtz1g {animation: 4.9s 1 forwards ease-out lightSpeedLeft;animation-delay: 3.3923076923076927s;opacity: 0}svg#freepik_stories-data-trends.animated #elqjmyhze3twh {animation: 4.9s 1 forwards ease-out lightSpeedLeft;animation-delay: 3.5807692307692314s;opacity: 0}svg#freepik_stories-data-trends.animated #elt24rvrhq53 {animation: 4.9s 1 forwards ease-out lightSpeedLeft;animation-delay: 3.7692307692307696s;opacity: 0}svg#freepik_stories-data-trends.animated #eldzij7qzhg8i {animation: 4.9s 1 forwards ease-out lightSpeedLeft;animation-delay: 3.9576923076923083s;opacity: 0}svg#freepik_stories-data-trends.animated #elhu72vr1w2d6 {animation: 4.9s 1 forwards ease-out lightSpeedLeft;animation-delay: 4.1461538461538465s;opacity: 0}svg#freepik_stories-data-trends.animated #ellzztzep5ygb {animation: 4.9s 1 forwards ease-out lightSpeedLeft;animation-delay: 4.334615384615385s;opacity: 0}svg#freepik_stories-data-trends.animated #elderotq8c6zv {animation: 4.9s 1 forwards ease-out lightSpeedLeft;animation-delay: 4.523076923076924s;opacity: 0}svg#freepik_stories-data-trends.animated #elm98tobqal5k {animation: 4.9s 1 forwards ease-out lightSpeedLeft;animation-delay: 4.711538461538463s;opacity: 0}svg#freepik_stories-data-trends.animated #freepik--Data--inject-136 {animation: 4.9s 1 forwards ease-out lightSpeedLeft;animation-delay: 0s;}            @keyframes slideLeft {                0% {                    opacity: 0;                    transform: translateX(-30px);                }                100% {                    opacity: 1;                    transform: translateX(0);                }            }                    @keyframes fadeIn {                0% {                    opacity: 0;                }                100% {                    opacity: 1;                }            }                    @keyframes slideUp {                0% {                    opacity: 0;                    transform: translateY(30px);                }                100% {                    opacity: 1;                    transform: inherit;                }            }                    @keyframes wind {                0% {                    transform: rotate( 0deg );                }                25% {                    transform: rotate( 1deg );                }                75% {                    transform: rotate( -1deg );                }            }                    @keyframes lightSpeedLeft {              from {                transform: translate3d(-50%, 0, 0) skewX(20deg);                opacity: 0;              }              60% {                transform: skewX(-10deg);                opacity: 1;              }              80% {                transform: skewX(2deg);              }              to {                opacity: 1;                transform: translate3d(0, 0, 0);              }            }        </style><g id="freepik--background-complete--inject-136" class="animable animator-active" style="transform-origin: 250px 227.39px;"><rect y="382.4" width="500" height="0.25" style="fill: rgb(235, 235, 235); transform-origin: 250px 382.525px;" id="el70v1rzxpg6v" class="animable"></rect><rect x="52.46" y="391.92" width="33.12" height="0.25" style="fill: rgb(235, 235, 235); transform-origin: 69.02px 392.045px;" id="el0ec6o40o263" class="animable"></rect><rect x="153.44" y="389.21" width="26.39" height="0.25" style="fill: rgb(235, 235, 235); transform-origin: 166.635px 389.335px;" id="elv7j3oldjzy" class="animable"></rect><rect x="89.97" y="397.82" width="45.92" height="0.25" style="fill: rgb(235, 235, 235); transform-origin: 112.93px 397.945px;" id="elee1xsrdmvx" class="animable"></rect><rect x="428.3" y="399.53" width="21.6" height="0.25" style="fill: rgb(235, 235, 235); transform-origin: 439.1px 399.655px;" id="elanh34frk7tl" class="animable"></rect><rect x="391.47" y="399.53" width="31.97" height="0.25" style="fill: rgb(235, 235, 235); transform-origin: 407.455px 399.655px;" id="ely90jpgdshhq" class="animable"></rect><rect x="277.21" y="395.31" width="55.12" height="0.25" style="fill: rgb(235, 235, 235); transform-origin: 304.77px 395.435px;" id="elwpk6c46pu4e" class="animable"></rect><path d="M237,337.8H43.91a5.71,5.71,0,0,1-5.7-5.71V60.66A5.71,5.71,0,0,1,43.91,55H237a5.71,5.71,0,0,1,5.71,5.71V332.09A5.71,5.71,0,0,1,237,337.8ZM43.91,55.2a5.46,5.46,0,0,0-5.45,5.46V332.09a5.46,5.46,0,0,0,5.45,5.46H237a5.47,5.47,0,0,0,5.46-5.46V60.66A5.47,5.47,0,0,0,237,55.2Z" style="fill: rgb(235, 235, 235); transform-origin: 140.46px 196.4px;" id="el1q3gfwsxk0w" class="animable"></path><path d="M453.31,337.8H260.21a5.72,5.72,0,0,1-5.71-5.71V60.66A5.72,5.72,0,0,1,260.21,55h193.1A5.71,5.71,0,0,1,459,60.66V332.09A5.71,5.71,0,0,1,453.31,337.8ZM260.21,55.2a5.47,5.47,0,0,0-5.46,5.46V332.09a5.47,5.47,0,0,0,5.46,5.46h193.1a5.47,5.47,0,0,0,5.46-5.46V60.66a5.47,5.47,0,0,0-5.46-5.46Z" style="fill: rgb(235, 235, 235); transform-origin: 356.75px 196.4px;" id="eldnufk47sp47" class="animable"></path><rect x="77.53" y="85.48" width="211.79" height="130.65" style="fill: rgb(230, 230, 230); transform-origin: 183.425px 150.805px;" id="elvmcjv7zygx" class="animable"></rect><rect x="80.07" y="85.48" width="214.69" height="130.65" style="fill: rgb(240, 240, 240); transform-origin: 187.415px 150.805px;" id="elf7jjcei0918" class="animable"></rect><rect x="77.53" y="216.13" width="211.79" height="10.11" style="fill: rgb(230, 230, 230); transform-origin: 183.425px 221.185px;" id="el9kv723fwmko" class="animable"></rect><rect x="89.13" y="216.13" width="214.69" height="10.11" style="fill: rgb(240, 240, 240); transform-origin: 196.475px 221.185px;" id="el9qqsdm4huv" class="animable"></rect><g id="elcs1q4x3t3hl"><rect x="129.7" y="51.08" width="115.42" height="199.45" style="fill: rgb(250, 250, 250); transform-origin: 187.41px 150.805px; transform: rotate(90deg);" class="animable"></rect></g><polygon points="102.33 208.52 147.04 93.1 168.14 93.1 123.43 208.52 102.33 208.52" style="fill: rgb(255, 255, 255); transform-origin: 135.235px 150.81px;" id="elpl8nqimyvp" class="animable"></polygon><polygon points="127.97 208.52 172.68 93.1 180.9 93.1 136.19 208.52 127.97 208.52" style="fill: rgb(255, 255, 255); transform-origin: 154.435px 150.81px;" id="elm4gdhn5ynlm" class="animable"></polygon><polygon points="206.19 208.52 250.9 93.1 259.13 93.1 214.42 208.52 206.19 208.52" style="fill: rgb(255, 255, 255); transform-origin: 232.66px 150.81px;" id="eleki1c8jeggd" class="animable"></polygon><g id="elu4w8uvjbeim"><rect x="228.94" y="150.32" width="115.42" height="0.97" style="fill: rgb(230, 230, 230); transform-origin: 286.65px 150.805px; transform: rotate(90deg);" class="animable"></rect></g><rect x="269.04" y="282.94" width="37.46" height="99.46" style="fill: rgb(230, 230, 230); transform-origin: 287.77px 332.67px;" id="elw0uf0do55nd" class="animable"></rect><polygon points="299.38 382.4 306.5 382.4 306.5 359.62 291.92 359.62 299.38 382.4" style="fill: rgb(240, 240, 240); transform-origin: 299.21px 371.01px;" id="el344qqffp8va" class="animable"></polygon><rect x="55.31" y="282.94" width="37.46" height="99.46" style="fill: rgb(230, 230, 230); transform-origin: 74.04px 332.67px;" id="elyh8g5chahwh" class="animable"></rect><rect x="86.56" y="282.94" width="219.94" height="95.86" style="fill: rgb(240, 240, 240); transform-origin: 196.53px 330.87px;" id="elx871boxsr6l" class="animable"></rect><polygon points="93.67 382.4 86.56 382.4 86.56 359.62 101.13 359.62 93.67 382.4" style="fill: rgb(240, 240, 240); transform-origin: 93.845px 371.01px;" id="eltm7fgop0etp" class="animable"></polygon><g id="elo6jb05bsjcr"><rect x="89.91" y="297.8" width="73.13" height="65.2" rx="2.41" style="fill: rgb(250, 250, 250); transform-origin: 126.475px 330.4px; transform: rotate(-90deg);" class="animable"></rect></g><path d="M132.92,301.32H120c-5.6,0-11-3.33-14.81-9.23h42.52C143.88,298,138.52,301.32,132.92,301.32Z" style="fill: rgb(240, 240, 240); transform-origin: 126.45px 296.705px;" id="el01e5j49p6zzf" class="animable"></path><g id="el4v1jz0nova8"><rect x="159.97" y="297.8" width="73.13" height="65.2" rx="2.41" style="fill: rgb(250, 250, 250); transform-origin: 196.535px 330.4px; transform: rotate(-90deg);" class="animable"></rect></g><path d="M203.64,301.32h-12.9c-5.61,0-11-3.33-14.81-9.23h42.52C214.59,298,209.24,301.32,203.64,301.32Z" style="fill: rgb(240, 240, 240); transform-origin: 197.19px 296.705px;" id="eluw7bj84gv6" class="animable"></path><g id="ellsdo87ru8v"><rect x="230.02" y="297.8" width="73.13" height="65.2" rx="2.41" style="fill: rgb(250, 250, 250); transform-origin: 266.585px 330.4px; transform: rotate(-90deg);" class="animable"></rect></g><path d="M273.69,301.32h-12.9c-5.6,0-11-3.33-14.81-9.23h42.53C284.65,298,279.3,301.32,273.69,301.32Z" style="fill: rgb(240, 240, 240); transform-origin: 267.245px 296.705px;" id="el24it46p6471i" class="animable"></path><path d="M461.47,273.18a1,1,0,0,0-1-.79H434.41a1,1,0,0,0-1,.79L420,382.4h2l13.24-108h24.44l13.25,108h2Z" style="fill: rgb(240, 240, 240); transform-origin: 447.465px 327.395px;" id="elm31kcekiwpb" class="animable"></path><path d="M422.24,273.18a1,1,0,0,0-1-.79H395.19a1,1,0,0,0-1,.79L380.71,382.4h2.05l13.25-108h24.43l13.24,108h2.05Z" style="fill: rgb(240, 240, 240); transform-origin: 408.22px 327.395px;" id="elagfk7l2wkr8" class="animable"></path><path d="M441,273.38h-44.9c-8.58,0-13.32-5.82-15.75-15.42l-1.19-5.49a11.24,11.24,0,0,1,11-13.92h28.15c5.83,0,7.37,1.39,11.39,10.17Z" style="fill: rgb(240, 240, 240); transform-origin: 409.918px 255.965px;" id="elro4ywciw77r" class="animable"></path><path d="M416.46,264.78H460.4a6.15,6.15,0,0,1,6.15,6.15v.21a2.24,2.24,0,0,1-2.24,2.24H416.46a0,0,0,0,1,0,0v-8.6a0,0,0,0,1,0,0Z" style="fill: rgb(240, 240, 240); transform-origin: 441.505px 269.08px;" id="el0qd58x66ho8l" class="animable"></path><path d="M403,273.18a1,1,0,0,0-1-.79H375.91a1,1,0,0,0-1,.79L361.44,382.4h2.05l13.24-108h24.44l13.24,108h2Z" style="fill: rgb(240, 240, 240); transform-origin: 388.925px 327.395px;" id="elb5hr6og49st" class="animable"></path><path d="M363.74,273.18a1,1,0,0,0-1-.79H336.69a1,1,0,0,0-1,.79L322.21,382.4h2.05l13.25-108h24.43l13.24,108h2.05Z" style="fill: rgb(240, 240, 240); transform-origin: 349.72px 327.395px;" id="elgz0wzqum6f6" class="animable"></path><path d="M382.45,273.38h-44.9c-8.58,0-13.33-5.82-15.75-15.42l-1.19-5.49a11.24,11.24,0,0,1,11-13.92h28.14c5.84,0,7.37,1.39,11.4,10.17Z" style="fill: rgb(240, 240, 240); transform-origin: 351.368px 255.965px;" id="elr0ugfhm8sk" class="animable"></path><path d="M358,264.78H401.9a6.15,6.15,0,0,1,6.15,6.15v.21a2.24,2.24,0,0,1-2.24,2.24H358a0,0,0,0,1,0,0v-8.6A0,0,0,0,1,358,264.78Z" style="fill: rgb(240, 240, 240); transform-origin: 383.025px 269.08px;" id="elxdtum524hs9" class="animable"></path><rect x="351.53" y="80.12" width="77.67" height="90.58" style="fill: rgb(240, 240, 240); transform-origin: 390.365px 125.41px;" id="elffbrdya8xxt" class="animable"></rect><rect x="352.7" y="80.12" width="83.03" height="90.58" style="fill: rgb(245, 245, 245); transform-origin: 394.215px 125.41px;" id="eljhnb0xnnhjg" class="animable"></rect><g id="elykaw1ozaryq"><rect x="356.06" y="91.03" width="76.3" height="68.75" style="fill: rgb(255, 255, 255); transform-origin: 394.21px 125.405px; transform: rotate(90deg);" class="animable"></rect></g><g id="elv06vp1o2xr"><rect x="388.68" y="119.83" width="11.06" height="34.35" style="fill: rgb(230, 230, 230); transform-origin: 394.21px 137.005px; transform: rotate(180deg);" class="animable"></rect></g><g id="elp38f7czsta"><rect x="407.49" y="138.1" width="11.06" height="16.08" style="fill: rgb(230, 230, 230); transform-origin: 413.02px 146.14px; transform: rotate(180deg);" class="animable"></rect></g><g id="el1f5pghm8lqr"><rect x="407.49" y="128.29" width="11.06" height="9.81" style="fill: rgb(240, 240, 240); transform-origin: 413.02px 133.195px; transform: rotate(180deg);" class="animable"></rect></g><g id="elr8mpie9o0l"><rect x="388.68" y="98.89" width="11.06" height="20.95" style="fill: rgb(240, 240, 240); transform-origin: 394.21px 109.365px; transform: rotate(180deg);" class="animable"></rect></g><g id="elxpwnmpphdb"><rect x="369.87" y="126.09" width="11.06" height="28.1" style="fill: rgb(230, 230, 230); transform-origin: 375.4px 140.14px; transform: rotate(180deg);" class="animable"></rect></g><g id="elqy0a79ua1un"><rect x="369.87" y="113.21" width="11.06" height="12.88" style="fill: rgb(240, 240, 240); transform-origin: 375.4px 119.65px; transform: rotate(180deg);" class="animable"></rect></g></g><g id="freepik--Shadow--inject-136" class="animable" style="transform-origin: 250px 416.24px;"><ellipse id="freepik--path--inject-136" cx="250" cy="416.24" rx="193.89" ry="11.32" style="fill: rgb(245, 245, 245); transform-origin: 250px 416.24px;" class="animable"></ellipse></g><g id="freepik--Character--inject-136" class="animable" style="transform-origin: 261.417px 256.565px;"><polygon points="246.37 406.96 255.22 407.04 259.94 386.53 251.08 386.45 246.37 406.96" style="fill: rgb(255, 139, 123); transform-origin: 253.155px 396.745px;" id="elxz2rqdlm2ua" class="animable"></polygon><path d="M255.44,406l-9.68-.08a.83.83,0,0,0-.8.6l-2.34,7.85a1.2,1.2,0,0,0,1.16,1.59c3.5,0,8.56-.19,13-.15,5.13.05,6.19.36,12.21.42,3.63,0,4.92-3.64,3.42-4-6.82-1.58-9.12-1.79-14.83-5.54A3.88,3.88,0,0,0,255.44,406Z" style="fill: rgb(38, 50, 56); transform-origin: 257.789px 411.075px;" id="elz7imi94683k" class="animable"></path><g id="el4nvufo1lhmq"><polygon points="259.93 386.54 257.51 397.11 248.65 397.03 251.07 386.46 259.93 386.54" style="opacity: 0.2; transform-origin: 254.29px 391.785px;" class="animable"></polygon></g><path d="M259.1,407.59a14.43,14.43,0,0,1-2.83-.34.21.21,0,0,1-.17-.18.21.21,0,0,1,.12-.21c.42-.21,4.14-2,5.16-1.36a.64.64,0,0,1,.3.56,1.27,1.27,0,0,1-.47,1A3.5,3.5,0,0,1,259.1,407.59ZM257,407c1.92.34,3.38.27,4-.21a.82.82,0,0,0,.32-.69.21.21,0,0,0-.1-.2C260.61,405.52,258.51,406.27,257,407Z" style="fill: rgb(64, 123, 255); transform-origin: 258.89px 406.481px;" id="elp8g7l75xj3h" class="animable"></path><path d="M256.31,407.26a.21.21,0,0,1-.13-.05.22.22,0,0,1-.08-.2c0-.16.7-4,2.81-3.74.56.07.71.35.75.57.14,1-2.13,2.92-3.27,3.4Zm2.42-3.58c-1.27,0-1.91,2.07-2.13,3,1.17-.66,2.73-2.16,2.64-2.76,0,0,0-.17-.38-.21Z" style="fill: rgb(64, 123, 255); transform-origin: 257.882px 405.259px;" id="elz38hsiles7p" class="animable"></path><path d="M300,164.63c.13,5.39.32,11,.58,16.46.12,2.74.27,5.48.46,8.2s.41,5.43.71,8.1q.19,2,.48,4l.13,1c0,.12,0,0,0,.06h0s0,.11,0,.29a4.73,4.73,0,0,0,1.45,1.57,18.81,18.81,0,0,0,2.76,1.73c4.23,2.2,9.6,3.81,14.7,5.25l-.54,6.77a55.18,55.18,0,0,1-9-.2c-1.51-.14-3-.36-4.54-.65a36.94,36.94,0,0,1-4.63-1.17,25.39,25.39,0,0,1-4.79-2,17.38,17.38,0,0,1-4.92-3.92,12.51,12.51,0,0,1-2-3.37c-.14-.32-.25-.67-.36-1l-.14-.52-.12-.45-.23-1.1c-.34-1.46-.63-2.92-.89-4.37-1.05-5.81-1.69-11.55-2.16-17.3-.2-2.87-.41-5.74-.49-8.61s-.19-5.71-.14-8.68Z" style="fill: rgb(255, 139, 123); transform-origin: 303.789px 191.394px;" id="el1tzrx5vjwb7" class="animable"></path><path d="M283.11,165.31c-1.26,10.05,1.06,24.89,1.06,24.89s7,1,12.45-.44,6.6-2.51,6.6-2.51a58.58,58.58,0,0,0,.16-20.93c-2.19-11.35-11.31-15.66-17.62-8.73C284.35,159.16,283.53,162,283.11,165.31Z" style="fill: rgb(64, 123, 255); transform-origin: 293.49px 172.394px;" id="ellxbr9nhmurf" class="animable"></path><g id="el81gn93jr9na"><path d="M284.15,170.16a52.43,52.43,0,0,0-1.36,5.17,141.88,141.88,0,0,0,1.38,14.86,39.08,39.08,0,0,0,11.6-.22c.16-1.92.26-4,.25-6.07C296,174.28,290.37,168.56,284.15,170.16Z" style="opacity: 0.2; transform-origin: 289.405px 180.206px;" class="animable"></path></g><path d="M318.18,210.77l6.93-.45-.34,8.78a11.11,11.11,0,0,1-8.6-2.7Z" style="fill: rgb(255, 139, 123); transform-origin: 320.64px 214.746px;" id="el3urw729kmon" class="animable"></path><path d="M332.17,214.38,330.88,218a2.27,2.27,0,0,1-2.41,1.51l-3.7-.42.34-8.78,5.35,1.05A2.3,2.3,0,0,1,332.17,214.38Z" style="fill: rgb(255, 139, 123); transform-origin: 328.536px 214.918px;" id="elkdpufoxzmn" class="animable"></path><g id="elk6xql5wx8z8"><rect x="322.61" y="207.44" width="4.94" height="12.67" rx="1.18" style="fill: rgb(38, 50, 56); transform-origin: 325.08px 213.775px; transform: rotate(29.13deg);" class="animable"></rect></g><g id="elx8w94k6axc"><rect x="318.67" y="217.21" width="5.98" height="5.4" rx="0.64" style="fill: rgb(38, 50, 56); transform-origin: 321.66px 219.91px; transform: rotate(29.13deg);" class="animable"></rect></g><path d="M334.76,211a14.57,14.57,0,0,1-7.11-1.85,15.53,15.53,0,1,1,20.68-6.24h0A15.63,15.63,0,0,1,334.76,211Zm.88-28.68a13.51,13.51,0,0,0-11.71,7,12.91,12.91,0,1,0,22.54,12.56h0a13.18,13.18,0,0,0-4.75-18A12.44,12.44,0,0,0,335.64,182.34Z" style="fill: rgb(38, 50, 56); transform-origin: 334.766px 195.408px;" id="el6c4jiq5ylgx" class="animable"></path><path d="M281.43,230.29s4.54,50,3.22,77.35C283.28,336,263.16,392,263.16,392l-16-.34s11-61.63,10.7-89.85c-.3-30.78-3.13-76.87-3.13-76.87Z" style="fill: rgb(38, 50, 56); transform-origin: 266.025px 308.47px;" id="el3u34tds59ag" class="animable"></path><g id="elgp4ebt76r0l"><path d="M260.52,237.93c-1.83-2.16-3.47-.1-4.85,3.91.57,10.78,1.26,25.34,1.71,39.45C265.19,269.41,266.41,244.92,260.52,237.93Z" style="opacity: 0.2; transform-origin: 259.944px 259.174px;" class="animable"></path></g><polygon points="245.19 392.33 264.01 392.71 266.02 386.46 246.37 386.41 245.19 392.33" style="fill: rgb(64, 123, 255); transform-origin: 255.605px 389.56px;" id="eljdowtbiqrz8" class="animable"></polygon><g id="eldwfltk3rclr"><polygon points="245.19 392.33 264.01 392.71 266.02 386.46 246.37 386.41 245.19 392.33" style="fill: rgb(255, 255, 255); opacity: 0.4; transform-origin: 255.605px 389.56px;" class="animable"></polygon></g><polygon points="180.07 372.12 186.77 377.92 201.9 363.86 195.19 358.06 180.07 372.12" style="fill: rgb(255, 139, 123); transform-origin: 190.985px 367.99px;" id="elpd75bmcm96i" class="animable"></polygon><path d="M187.36,378.2,182.3,370a.85.85,0,0,0-.93-.37l-7.9,2.18a1.2,1.2,0,0,0-.74,1.82c1.88,2.95,4.7,7.16,7,10.91,2.68,4.37,2.66,4.3,5.81,9.43,1.9,3.11,5.69,2.25,5.19.8-2.28-6.62-3-7.54-2.86-14.37A3.84,3.84,0,0,0,187.36,378.2Z" style="fill: rgb(38, 50, 56); transform-origin: 181.657px 382.842px;" id="elltuiyg1ukps" class="animable"></path><g id="el6l1nwcber1g"><polygon points="201.89 363.86 194.1 371.11 187.39 365.31 195.19 358.06 201.89 363.86" style="opacity: 0.2; transform-origin: 194.64px 364.585px;" class="animable"></polygon></g><path d="M188,382.14a14.76,14.76,0,0,1-1.22-2.58.22.22,0,0,1,.07-.24.21.21,0,0,1,.24,0c.4.25,3.89,2.47,3.89,3.67a.63.63,0,0,1-.32.55,1.26,1.26,0,0,1-1.11.14A3.41,3.41,0,0,1,188,382.14Zm-.59-2.13c.73,1.8,1.56,3,2.27,3.25a.81.81,0,0,0,.75-.1c.11-.07.13-.14.13-.19C190.52,382.32,188.76,380.94,187.37,380Z" style="fill: rgb(64, 123, 255); transform-origin: 188.874px 381.516px;" id="elg62j6mufsfc" class="animable"></path><path d="M186.76,379.59a.28.28,0,0,1,0-.13.21.21,0,0,1,.13-.17c.15-.06,3.74-1.51,4.66.4.24.51.08.79-.09.94-.77.65-3.6-.27-4.61-1Zm4.31.17c-.67-1.08-2.76-.52-3.65-.23,1.18.64,3.28,1.16,3.74.78,0,0,.13-.12,0-.44A.41.41,0,0,0,191.07,379.76Z" style="fill: rgb(64, 123, 255); transform-origin: 189.212px 379.779px;" id="el7wcd3zw2xgs" class="animable"></path><path d="M265.21,227s-8.43,46.84-14.47,73.51c-6.27,27.74-49.84,69.6-49.84,69.6l-12-10.63s31.82-41.56,36.44-69.4c5-30.36,9.59-69.18,9.59-69.18Z" style="fill: rgb(38, 50, 56); transform-origin: 227.055px 295.505px;" id="elen2yh7oj30d" class="animable"></path><polygon points="186.52 359.54 200.19 371.79 204.84 367.88 190.41 354.01 186.52 359.54" style="fill: rgb(64, 123, 255); transform-origin: 195.68px 362.9px;" id="el1i86c3h7azs" class="animable"></polygon><g id="el0nsxh2ix5swp"><polygon points="186.52 359.54 200.19 371.79 204.84 367.88 190.41 354.01 186.52 359.54" style="fill: rgb(255, 255, 255); opacity: 0.4; transform-origin: 195.68px 362.9px;" class="animable"></polygon></g><path d="M296.06,155.07s5,28.31-14.63,75.22L235,220.92c1.12-7.2,12.62-41.1,12.52-76.11a124.32,124.32,0,0,1,16,1.17,173.7,173.7,0,0,1,19.76,4A88.42,88.42,0,0,1,296.06,155.07Z" style="fill: rgb(64, 123, 255); transform-origin: 265.815px 187.55px;" id="elws6kj3r6hqm" class="animable"></path><g id="elwix53ktj65"><path d="M287.55,183.4c-.63,9.16-6.76,16.3-13.59,15.84a10.24,10.24,0,0,1-6.07-2.65l1.94-3.78a7.43,7.43,0,0,0,4.44,1.94c5,.34,9.48-4.88,9.93-11.58Z" style="fill: rgb(38, 50, 56); opacity: 0.2; transform-origin: 277.72px 191.216px;" class="animable"></path></g><g id="elpgfq4lztdv"><path d="M287.55,183.4l-3.35-.23a15.59,15.59,0,0,0-.51-5.21,12.25,12.25,0,0,0-2.11-4.35l2.39-3.3a17.06,17.06,0,0,1,2.89,6A22,22,0,0,1,287.55,183.4Z" style="fill: rgb(255, 255, 255); opacity: 0.5; transform-origin: 284.589px 176.855px;" class="animable"></path></g><g id="elvi8da1p1bh"><path d="M284,170.31l-2.39,3.3A8.79,8.79,0,0,0,279,171.3a7.34,7.34,0,0,0-3.07-1l.31-4.49a9.73,9.73,0,0,1,4.19,1.31A12.24,12.24,0,0,1,284,170.31Z" style="fill: rgb(38, 50, 56); opacity: 0.4; transform-origin: 279.965px 169.71px;" class="animable"></path></g><g id="el6267enthxqi"><path d="M276.23,165.85l-.31,4.49c-5-.34-9.47,4.89-9.92,11.59-.3,4.35,1.16,8.51,3.83,10.88l-1.94,3.78c-3.65-3.25-5.65-8.93-5.24-14.89C263.27,172.54,269.4,165.39,276.23,165.85Z" style="fill: rgb(255, 255, 255); opacity: 0.2; transform-origin: 269.414px 181.21px;" class="animable"></path></g><g id="elzf1rm37gi9"><path d="M246.06,167.77c-.43,3.52-.93,7-1.47,10.31,3.88-1.8,9.18-11.33,8.61-16.58Z" style="opacity: 0.2; transform-origin: 248.916px 169.79px;" class="animable"></path></g><path d="M269.86,124.13c0,6.61-1.14,18.51-6.44,21.85,0,0,1.79,7.35,15.47,12.35,6.71-3,4.29-8.36,4.29-8.36-6.75-3.13-5.51-8.35-3.27-13Z" style="fill: rgb(255, 139, 123); transform-origin: 273.512px 141.23px;" id="elfderolxdzz" class="animable"></path><g id="el4a632635n5r"><path d="M274,129.35l5.94,7.57a21.39,21.39,0,0,0-1.32,3.39c-2.62-.94-5.75-4.66-5.46-7.56A9.51,9.51,0,0,1,274,129.35Z" style="opacity: 0.2; transform-origin: 276.541px 134.83px;" class="animable"></path></g><path d="M289.43,122.21c1.24-3,1.42-6.44-1-8.73.15-2,1.63-4.27,3.68-6.06C295.06,105.79,301,117.14,289.43,122.21Z" style="fill: rgb(38, 50, 56); transform-origin: 292.355px 114.736px;" id="el1pso88otlbx" class="animable"></path><path d="M292.9,112.5a1,1,0,0,1,0-2h0c.2,0,4.76-.26,6.23-5.6a1,1,0,1,1,1.93.53,9.14,9.14,0,0,1-8.09,7.07Z" style="fill: rgb(38, 50, 56); transform-origin: 296.498px 108.332px;" id="elecci946smk" class="animable"></path><path d="M271,114.41c-1.21,8.71-2.36,13.75,1.1,19.05,5.2,8,16.62,6.16,20.4-2,3.41-7.36,4.81-20.37-2.92-25.5A12,12,0,0,0,271,114.41Z" style="fill: rgb(255, 139, 123); transform-origin: 282.518px 121.268px;" id="eli4xu7b7534n" class="animable"></path><path d="M270.75,122.13a16.57,16.57,0,0,1,3,.36,1.63,1.63,0,0,0,2-1.71c-.16-2.13.42-4.3,2.37-5.24A6.58,6.58,0,0,0,277,111a1,1,0,0,1,1.16-1.37c4.34,1.68,10.89,4.32,14.18,2.61,4.27-2.22,9.16-10.14,2.71-10.69-3.09-.25-2.74-2-5.07-3.6s-8-1.39-12.33.75-11-1.83-13.54,1.33c-1.89,2.31-.71,5.59-.71,5.59s-3.71.5-4.34,7.5c-.47,5.24,7.93,15.16,10.55,16.22C271.13,123.92,270.75,122.13,270.75,122.13Z" style="fill: rgb(38, 50, 56); transform-origin: 278.604px 113.12px;" id="elopxri7odfh8" class="animable"></path><path d="M264.63,108.1a1,1,0,0,1-.94-.67,2.75,2.75,0,0,0-3.82-1.61,1,1,0,0,1-.65-1.89,5,5,0,0,1,3.94.09,5.22,5.22,0,0,1,2.42,2.76,1,1,0,0,1-.62,1.27A1,1,0,0,1,264.63,108.1Z" style="fill: rgb(38, 50, 56); transform-origin: 262.107px 105.835px;" id="eld9basibi44j" class="animable"></path><path d="M283.61,119.45c-.14.7.11,1.34.57,1.43s.95-.4,1.09-1.1-.12-1.34-.58-1.43S283.75,118.75,283.61,119.45Z" style="fill: rgb(38, 50, 56); transform-origin: 284.44px 119.615px;" id="el6zazw20jgx9" class="animable"></path><path d="M291.53,121.05c-.14.7.12,1.34.57,1.43s.95-.4,1.09-1.1-.12-1.34-.57-1.44S291.67,120.34,291.53,121.05Z" style="fill: rgb(38, 50, 56); transform-origin: 292.36px 121.209px;" id="el1fql3uxftnv" class="animable"></path><path d="M288.94,120.89a25.71,25.71,0,0,0,2.14,6.67c-1.47.9-3.47,0-3.47,0Z" style="fill: rgb(255, 86, 82); transform-origin: 289.345px 124.425px;" id="elq7eypvmxl4l" class="animable"></path><path d="M285.18,129h0a6,6,0,0,1-4.39-3.34.21.21,0,0,1,.11-.27.22.22,0,0,1,.28.12,5.69,5.69,0,0,0,4.09,3.08.21.21,0,0,1,.16.25A.21.21,0,0,1,285.18,129Z" style="fill: rgb(38, 50, 56); transform-origin: 283.105px 127.19px;" id="elmgj1abqogho" class="animable"></path><path d="M285.43,115.43a.38.38,0,0,1,.15.23.42.42,0,0,1-.29.51,4.18,4.18,0,0,1-3.77-.7.42.42,0,1,1,.56-.63h0a3.29,3.29,0,0,0,3,.52A.47.47,0,0,1,285.43,115.43Z" style="fill: rgb(38, 50, 56); transform-origin: 283.486px 115.541px;" id="elsemary21rj" class="animable"></path><path d="M296,117.37a.4.4,0,0,1-.39-.24,3.37,3.37,0,0,0-2.35-1.92.42.42,0,0,1-.36-.47.43.43,0,0,1,.48-.36,4.19,4.19,0,0,1,3,2.39.42.42,0,0,1-.2.56A.38.38,0,0,1,296,117.37Z" style="fill: rgb(38, 50, 56); transform-origin: 294.659px 115.874px;" id="elksaxrrnpv2" class="animable"></path><path d="M254.49,160.26c-2.08,2.17-4.33,4.5-6.44,6.81s-4.27,4.65-6.33,7a175.18,175.18,0,0,0-11.6,14.52l-1.26,1.83a6.89,6.89,0,0,0-.67,1.16,10.75,10.75,0,0,0-.84,3,24.11,24.11,0,0,0,.48,7.8,74.74,74.74,0,0,0,6.13,17l-5.57,3.88c-1.2-1.39-2.21-2.69-3.22-4.1s-2-2.83-2.84-4.32a53.7,53.7,0,0,1-4.58-9.56,32.47,32.47,0,0,1-2-11.39,21.71,21.71,0,0,1,1.08-6.52,19.54,19.54,0,0,1,1.43-3.22l1.33-2.3c.87-1.51,1.8-2.92,2.72-4.37s1.91-2.82,2.91-4.18c1.95-2.77,4-5.4,6.14-8s4.3-5.11,6.55-7.57,4.49-4.85,7-7.25Z" style="fill: rgb(255, 139, 123); transform-origin: 235.12px 186.87px;" id="el74c5dl6rjxb" class="animable"></path><path d="M247.47,144.81c-8.47.31-21.08,23.68-21.08,23.68,1.66,4,8.91,10.32,12.76,11.35,0,0,10.07-6.41,15.55-15.89C260.44,154,256.54,144.48,247.47,144.81Z" style="fill: rgb(64, 123, 255); transform-origin: 241.893px 162.321px;" id="elv9wdnpcdw99" class="animable"></path><path d="M231.75,217.48l9.36,1.75-7.47,8.44s-6.4-2.83-6.41-6.29Z" style="fill: rgb(255, 139, 123); transform-origin: 234.17px 222.575px;" id="el8u0wfhppv9a" class="animable"></path><path d="M243.78,228.1l-1.91,2a3.72,3.72,0,0,1-5.05.26l-3.18-2.65,7.47-8.44,3,4.06A3.73,3.73,0,0,1,243.78,228.1Z" style="fill: rgb(255, 139, 123); transform-origin: 239.229px 225.247px;" id="elgb5uzjy29at" class="animable"></path><path d="M266,120.45a8.33,8.33,0,0,0,2.35,5.94c2.05,2.1,4.54.61,5.18-2.09.59-2.43.22-6.45-2.43-7.53S266.1,117.74,266,120.45Z" style="fill: rgb(255, 139, 123); transform-origin: 269.886px 121.929px;" id="eloktor1svvv" class="animable"></path></g><g id="freepik--Data--inject-136" class="animable" style="transform-origin: 249.995px 295.935px;"><rect x="72.48" y="330.48" width="23.8" height="35.41" rx="4.26" style="fill: rgb(64, 123, 255); transform-origin: 84.38px 348.185px;" id="el0glj1a5iqedu" class="animable"></rect><rect x="100.09" y="311.63" width="23.8" height="54.25" rx="4.26" style="fill: rgb(64, 123, 255); transform-origin: 111.99px 338.755px;" id="eloewn4ffa3gg" class="animable"></rect><rect x="127.69" y="319.81" width="23.8" height="46.08" rx="4.26" style="fill: rgb(64, 123, 255); transform-origin: 139.59px 342.85px;" id="elpzq2e3lvkem" class="animable"></rect><rect x="155.29" y="308.14" width="23.8" height="57.75" rx="4.26" style="fill: rgb(64, 123, 255); transform-origin: 167.19px 337.015px;" id="el21z4yd78dit" class="animable"></rect><rect x="182.89" y="295.81" width="23.8" height="70.08" rx="4.26" style="fill: rgb(64, 123, 255); transform-origin: 194.79px 330.85px;" id="ellx3raiberu" class="animable"></rect><rect x="210.5" y="282.81" width="23.8" height="83.08" rx="4.26" style="fill: rgb(64, 123, 255); transform-origin: 222.4px 324.35px;" id="elsqwim7tmx98" class="animable"></rect><rect x="238.1" y="302.48" width="23.8" height="63.41" rx="4.26" style="fill: rgb(64, 123, 255); transform-origin: 250px 334.185px;" id="el35q5adp8zc" class="animable"></rect><rect x="265.7" y="277.14" width="23.8" height="88.75" rx="4.26" style="fill: rgb(64, 123, 255); transform-origin: 277.6px 321.515px;" id="elxg8hibua1d" class="animable"></rect><rect x="293.3" y="269.48" width="23.8" height="96.41" rx="4.26" style="fill: rgb(64, 123, 255); transform-origin: 305.2px 317.685px;" id="elnyooh4opezh" class="animable"></rect><rect x="320.91" y="274.14" width="23.8" height="91.75" rx="4.26" style="fill: rgb(64, 123, 255); transform-origin: 332.81px 320.015px;" id="el4r0lnrdop9" class="animable"></rect><rect x="348.51" y="246.86" width="23.8" height="119.03" rx="4.26" style="fill: rgb(64, 123, 255); transform-origin: 360.41px 306.375px;" id="el6fklfb3uou9" class="animable"></rect><rect x="376.11" y="258.19" width="23.8" height="107.7" rx="4.26" style="fill: rgb(64, 123, 255); transform-origin: 388.01px 312.04px;" id="elfksp7knmhij" class="animable"></rect><rect x="403.71" y="230.58" width="23.8" height="135.31" rx="4.26" style="fill: rgb(64, 123, 255); transform-origin: 415.61px 298.235px;" id="el537qovy1trt" class="animable"></rect><path d="M84.39,346.25A.52.52,0,0,1,84,346a.51.51,0,0,1,.11-.7l1.21-.88a.51.51,0,0,1,.7.11.49.49,0,0,1-.11.7l-1.21.88A.53.53,0,0,1,84.39,346.25Z" style="fill: rgb(38, 50, 56); transform-origin: 85.014px 345.289px;" id="elrljx0ldt1li" class="animable"></path><path d="M89.66,342.41a.49.49,0,0,1-.41-.21.51.51,0,0,1,.11-.7l2.44-1.77a.5.5,0,1,1,.59.81L90,342.31A.46.46,0,0,1,89.66,342.41Zm6.49-4.73a.49.49,0,0,1-.4-.21.5.5,0,0,1,.11-.69L98.3,335a.5.5,0,0,1,.69.11.49.49,0,0,1-.11.7l-2.43,1.77A.47.47,0,0,1,96.15,337.68Zm6.5-4.73a.53.53,0,0,1-.41-.2.51.51,0,0,1,.11-.7l2.44-1.78a.5.5,0,1,1,.59.81l-2.44,1.78A.52.52,0,0,1,102.65,333Zm6.49-4.73a.5.5,0,0,1-.29-.9l2.44-1.77a.49.49,0,1,1,.58.8l-2.43,1.78A.53.53,0,0,1,109.14,328.22Zm6.5-4.72a.52.52,0,0,1-.41-.21.5.5,0,0,1,.12-.7l2.43-1.77a.5.5,0,1,1,.59.81l-2.44,1.77A.53.53,0,0,1,115.64,323.5Zm6.5-4.73a.49.49,0,0,1-.41-.21.51.51,0,0,1,.11-.7l2.44-1.77a.5.5,0,0,1,.69.11.49.49,0,0,1-.11.7l-2.43,1.77A.46.46,0,0,1,122.14,318.77Zm6.49-4.73a.48.48,0,0,1-.4-.21.49.49,0,0,1,.11-.7l2.43-1.77a.5.5,0,0,1,.59.81l-2.44,1.77A.45.45,0,0,1,128.63,314Zm6.5-4.73a.5.5,0,0,1-.3-.9l2.44-1.78a.5.5,0,0,1,.59.81l-2.44,1.77A.46.46,0,0,1,135.13,309.31Zm6.49-4.73a.5.5,0,0,1-.29-.9l2.43-1.77a.49.49,0,0,1,.7.11.5.5,0,0,1-.11.69l-2.44,1.78A.5.5,0,0,1,141.62,304.58Zm6.5-4.73a.5.5,0,0,1-.3-.9l2.44-1.77a.49.49,0,0,1,.7.11.51.51,0,0,1-.11.7l-2.44,1.77A.52.52,0,0,1,148.12,299.85Zm6.49-4.72a.5.5,0,0,1-.4-.21.49.49,0,0,1,.11-.7l2.43-1.77a.5.5,0,0,1,.7.11.51.51,0,0,1-.11.7L154.91,295A.57.57,0,0,1,154.61,295.13Zm6.5-4.73a.49.49,0,0,1-.41-.21.51.51,0,0,1,.11-.7l2.44-1.77a.5.5,0,0,1,.59.81l-2.44,1.77A.46.46,0,0,1,161.11,290.4Zm6.49-4.73a.49.49,0,0,1-.4-.21.48.48,0,0,1,.11-.69l2.43-1.78a.5.5,0,0,1,.59.81l-2.43,1.77A.49.49,0,0,1,167.6,285.67Zm6.5-4.73a.51.51,0,0,1-.41-.2.51.51,0,0,1,.11-.7l2.44-1.78a.5.5,0,0,1,.59.81l-2.44,1.78A.52.52,0,0,1,174.1,280.94Zm6.49-4.73a.51.51,0,0,1-.4-.2.5.5,0,0,1,.11-.7l2.43-1.77a.5.5,0,1,1,.59.8l-2.43,1.78A.55.55,0,0,1,180.59,276.21Zm6.5-4.72a.52.52,0,0,1-.41-.21.51.51,0,0,1,.11-.7l2.44-1.77a.5.5,0,0,1,.7.11.51.51,0,0,1-.11.7l-2.44,1.77A.53.53,0,0,1,187.09,271.49Z" style="fill: rgb(38, 50, 56); transform-origin: 139.59px 305.563px;" id="elgo1k7v13sz9" class="animable"></path><path d="M193.58,266.76a.52.52,0,0,1-.4-.21.5.5,0,0,1,.11-.7l1.21-.88a.49.49,0,0,1,.42-.08l1.45.37a.5.5,0,1,1-.25,1l-1.22-.31-1,.74A.54.54,0,0,1,193.58,266.76Z" style="fill: rgb(38, 50, 56); transform-origin: 194.923px 265.818px;" id="elhzw1ssqvet" class="animable"></path><path d="M305.16,294.36h-.08l-2.84-.73a.5.5,0,1,1,.25-1l2.76.71a.5.5,0,0,1,.42.24.46.46,0,0,1-.15.66A.84.84,0,0,1,305.16,294.36Zm-7.66-2-.13,0-2.92-.75a.5.5,0,1,1,.25-1l2.92.75a.5.5,0,0,1-.12,1Zm12.14-.55a.49.49,0,0,1-.44-.26.51.51,0,0,1,.19-.68l2.61-1.5a.51.51,0,0,1,.69.19.5.5,0,0,1-.19.68l-2.61,1.5A.59.59,0,0,1,309.64,291.83Zm-19.93-1.46-.13,0-2.92-.75a.5.5,0,1,1,.25-1l2.92.75a.5.5,0,0,1-.12,1Zm-7.79-2-.13,0-2.92-.75a.51.51,0,0,1-.36-.61.5.5,0,0,1,.61-.36l2.92.75a.5.5,0,0,1-.12,1Zm34.7-.53a.49.49,0,0,1-.44-.26.5.5,0,0,1,.19-.68l2.61-1.5a.5.5,0,0,1,.69.19.51.51,0,0,1-.19.68l-2.62,1.5A.51.51,0,0,1,316.62,287.83Zm-42.49-1.48-.12,0-2.92-.75a.5.5,0,0,1-.36-.61.49.49,0,0,1,.61-.36l2.92.75a.5.5,0,0,1-.13,1Zm-7.79-2-.12,0-2.92-.75a.5.5,0,1,1,.25-1l2.92.75a.5.5,0,0,1-.13,1Zm57.25-.51a.49.49,0,0,1-.43-.26.5.5,0,0,1,.18-.68l2.62-1.5a.49.49,0,0,1,.68.19.49.49,0,0,1-.18.68l-2.62,1.5A.55.55,0,0,1,323.59,283.83Zm-65-1.5-.12,0-2.92-.75a.5.5,0,0,1,.25-1l2.92.75a.5.5,0,0,1-.13,1Zm-7.78-2-.13,0-2.92-.75a.5.5,0,0,1,.25-1l2.92.75a.5.5,0,0,1-.12,1Zm79.8-.49a.49.49,0,0,1-.43-.26.49.49,0,0,1,.18-.68l2.62-1.5a.49.49,0,0,1,.68.19.49.49,0,0,1-.18.68l-2.62,1.5A.55.55,0,0,1,330.57,279.83ZM243,278.31l-.13,0-2.92-.75a.5.5,0,1,1,.25-1l2.92.75a.5.5,0,0,1-.12,1Zm-7.79-2-.13,0-2.92-.75a.51.51,0,0,1-.36-.61.5.5,0,0,1,.61-.36l2.92.75a.5.5,0,0,1-.12,1Zm102.36-.47a.49.49,0,0,1-.43-.26.49.49,0,0,1,.18-.68l2.62-1.5a.49.49,0,0,1,.68.19.49.49,0,0,1-.18.68l-2.62,1.5A.55.55,0,0,1,337.55,275.83ZM227.4,274.29l-.12,0-2.93-.75a.5.5,0,0,1-.35-.61.49.49,0,0,1,.6-.36l2.93.75a.5.5,0,0,1-.13,1Zm-7.79-2-.12,0-2.92-.75a.5.5,0,0,1,.25-1l2.92.75a.5.5,0,0,1-.13,1Zm124.92-.45a.49.49,0,0,1-.43-.26.49.49,0,0,1,.18-.68l2.62-1.5a.5.5,0,1,1,.49.87l-2.61,1.5A.59.59,0,0,1,344.53,271.83Zm-132.71-1.56-.12,0-2.92-.75a.5.5,0,1,1,.25-1l2.92.75a.5.5,0,0,1-.13,1Zm-7.78-2-.13,0-2.92-.75a.5.5,0,1,1,.25-1l2.92.75a.5.5,0,0,1-.12,1Zm147.47-.43a.49.49,0,0,1-.44-.26.51.51,0,0,1,.19-.68l2.62-1.5a.49.49,0,0,1,.68.19.5.5,0,0,1-.19.68l-2.61,1.5A.59.59,0,0,1,351.51,267.83Zm7-4a.49.49,0,0,1-.44-.26.5.5,0,0,1,.19-.68l2.61-1.5a.5.5,0,1,1,.5.87l-2.62,1.5A.51.51,0,0,1,358.49,263.83Zm7-4a.49.49,0,0,1-.43-.26.5.5,0,0,1,.18-.68l2.62-1.5a.49.49,0,0,1,.68.19.49.49,0,0,1-.18.68l-2.62,1.5A.55.55,0,0,1,365.46,259.83Zm7-4a.49.49,0,0,1-.43-.26.49.49,0,0,1,.18-.68l2.62-1.5a.49.49,0,0,1,.68.19.49.49,0,0,1-.18.68l-2.62,1.5A.55.55,0,0,1,372.44,255.83Zm7-4a.49.49,0,0,1-.43-.26.49.49,0,0,1,.18-.68l2.62-1.5a.5.5,0,0,1,.5.87l-2.62,1.5A.55.55,0,0,1,379.42,251.83Zm7-4a.49.49,0,0,1-.43-.26.49.49,0,0,1,.18-.68l2.62-1.5a.5.5,0,1,1,.49.87l-2.61,1.5A.59.59,0,0,1,386.4,247.83Zm7-4a.5.5,0,0,1-.44-.26.51.51,0,0,1,.19-.68l2.62-1.5a.49.49,0,0,1,.68.19.5.5,0,0,1-.19.68l-2.61,1.5A.59.59,0,0,1,393.38,243.83Zm7-4a.49.49,0,0,1-.44-.26.5.5,0,0,1,.19-.68l2.61-1.5a.5.5,0,0,1,.69.19.51.51,0,0,1-.19.68l-2.62,1.5A.51.51,0,0,1,400.36,239.83Zm7-4a.49.49,0,0,1-.43-.26.5.5,0,0,1,.19-.68l2.61-1.5a.49.49,0,0,1,.68.19.49.49,0,0,1-.18.68l-2.62,1.5A.55.55,0,0,1,407.33,235.83Z" style="fill: rgb(38, 50, 56); transform-origin: 305.615px 263.851px;" id="elxjq7juu988b" class="animable"></path><path d="M414.31,231.83a.49.49,0,0,1-.43-.26.49.49,0,0,1,.18-.68l1.31-.74a.49.49,0,1,1,.49.86l-1.3.75A.55.55,0,0,1,414.31,231.83Z" style="fill: rgb(38, 50, 56); transform-origin: 414.96px 230.958px;" id="el986jx8foelk" class="animable"></path><path d="M88.49,345.75a4.11,4.11,0,1,1-4.1-4.11A4.11,4.11,0,0,1,88.49,345.75Z" style="fill: rgb(255, 255, 255); transform-origin: 84.38px 345.75px;" id="elwnh7vvtz1g" class="animable"></path><path d="M84.39,350.35a4.61,4.61,0,1,1,4.6-4.6A4.62,4.62,0,0,1,84.39,350.35Zm0-8.21a3.61,3.61,0,1,0,3.6,3.61A3.61,3.61,0,0,0,84.39,342.14Z" style="fill: rgb(38, 50, 56); transform-origin: 84.38px 345.74px;" id="elqjmyhze3twh" class="animable"></path><circle cx="194.8" cy="265.37" r="4.1" style="fill: rgb(255, 255, 255); transform-origin: 194.8px 265.37px;" id="elt24rvrhq53" class="animable"></circle><path d="M194.8,270a4.61,4.61,0,1,1,4.6-4.61A4.62,4.62,0,0,1,194.8,270Zm0-8.21a3.61,3.61,0,1,0,3.6,3.6A3.61,3.61,0,0,0,194.8,261.77Z" style="fill: rgb(38, 50, 56); transform-origin: 194.79px 265.39px;" id="eldzij7qzhg8i" class="animable"></path><circle cx="305.2" cy="293.87" r="4.1" style="fill: rgb(255, 255, 255); transform-origin: 305.2px 293.87px;" id="elhu72vr1w2d6" class="animable"></circle><path d="M305.21,298.47a4.61,4.61,0,1,1,4.6-4.6A4.62,4.62,0,0,1,305.21,298.47Zm0-8.21a3.61,3.61,0,1,0,3.6,3.61A3.61,3.61,0,0,0,305.21,290.26Z" style="fill: rgb(38, 50, 56); transform-origin: 305.2px 293.86px;" id="ellzztzep5ygb" class="animable"></path><circle cx="415.61" cy="230.58" r="4.1" style="fill: rgb(255, 255, 255); transform-origin: 415.61px 230.58px;" id="elderotq8c6zv" class="animable"></circle><path d="M415.61,235.18a4.6,4.6,0,1,1,4.61-4.6A4.61,4.61,0,0,1,415.61,235.18Zm0-8.2a3.6,3.6,0,1,0,3.61,3.6A3.6,3.6,0,0,0,415.61,227Z" style="fill: rgb(38, 50, 56); transform-origin: 415.62px 230.58px;" id="elm98tobqal5k" class="animable"></path></g><defs>     <filter id="active" height="200%">         <feMorphology in="SourceAlpha" result="DILATED" operator="dilate" radius="2"></feMorphology>                <feFlood flood-color="#32DFEC" flood-opacity="1" result="PINK"></feFlood>        <feComposite in="PINK" in2="DILATED" operator="in" result="OUTLINE"></feComposite>        <feMerge>            <feMergeNode in="OUTLINE"></feMergeNode>            <feMergeNode in="SourceGraphic"></feMergeNode>        </feMerge>    </filter>    <filter id="hover" height="200%">        <feMorphology in="SourceAlpha" result="DILATED" operator="dilate" radius="2"></feMorphology>                <feFlood flood-color="#ff0000" flood-opacity="0.5" result="PINK"></feFlood>        <feComposite in="PINK" in2="DILATED" operator="in" result="OUTLINE"></feComposite>        <feMerge>            <feMergeNode in="OUTLINE"></feMergeNode>            <feMergeNode in="SourceGraphic"></feMergeNode>        </feMerge>            <feColorMatrix type="matrix" values="0   0   0   0   0                0   1   0   0   0                0   0   0   0   0                0   0   0   1   0 "></feColorMatrix>    </filter></defs></svg>